<?xml version="1.0" encoding="UTF-8" standalone="no"?>
<!DOCTYPE svg PUBLIC "-//W3C//DTD SVG 1.1//EN"
 "http://www.w3.org/Graphics/SVG/1.1/DTD/svg11.dtd">
<!-- Generated by graphviz version 14.1.0 (20251206.1807)
 -->
<!-- Title: fluxgraph Pages: 1 -->
<svg width="907pt" height="158pt"
 viewBox="0.00 0.00 907.00 158.00" xmlns="http://www.w3.org/2000/svg" xmlns:xlink="http://www.w3.org/1999/xlink">
<g id="graph0" class="graph" transform="scale(1 1) rotate(0) translate(4 153.5)">
<title>fluxgraph</title>
<polygon fill="white" stroke="none" points="-4,4 -4,-153.5 902.56,-153.5 902.56,4 -4,4"/>
<!-- model:chamber -->
<g id="node1" class="node">
<title>model:chamber</title>
<polygon fill="none" stroke="black" points="116.77,-41 11.52,-41 11.52,0 116.77,0 116.77,-41"/>
<text xml:space="preserve" text-anchor="middle" x="64.15" y="-23.7" font-family="Times New Roman,serif" font-size="14.00">model: chamber</text>
<text xml:space="preserve" text-anchor="middle" x="64.15" y="-7.2" font-family="Times New Roman,serif" font-size="14.00">thermal_mass</text>
</g>
<!-- signal:chamber.power -->
<g id="node2" class="node">
<title>signal:chamber.power</title>
<ellipse fill="none" stroke="black" cx="398.28" cy="-77.5" rx="68.24" ry="18"/>
<text xml:space="preserve" text-anchor="middle" x="398.28" y="-72.45" font-family="Times New Roman,serif" font-size="14.00">chamber.power</text>
</g>
<!-- signal:chamber.temp -->
<g id="node3" class="node">
<title>signal:chamber.temp</title>
<ellipse fill="none" stroke="black" cx="64.15" cy="-131.5" rx="64.15" ry="18"/>
<text xml:space="preserve" text-anchor="middle" x="64.15" y="-126.45" font-family="Times New Roman,serif" font-size="14.00">chamber.temp</text>
</g>
<!-- signal:sensor.reading -->
<g id="node6" class="node">
<title>signal:sensor.reading</title>
<ellipse fill="none" stroke="black" cx="398.28" cy="-131.5" rx="64.15" ry="18"/>
<text xml:space="preserve" text-anchor="middle" x="398.28" y="-126.45" font-family="Times New Roman,serif" font-size="14.00">sensor.reading</text>
</g>
<!-- signal:chamber.temp&#45;&gt;signal:sensor.reading -->
<g id="edge1" class="edge">
<title>signal:chamber.temp&#45;&gt;signal:sensor.reading</title>
<path fill="none" stroke="black" d="M128.79,-131.5C184.07,-131.5 264.17,-131.5 322.49,-131.5"/>
<polygon fill="black" stroke="black" points="322.34,-135 332.34,-131.5 322.34,-128 322.34,-135"/>
<text xml:space="preserve" text-anchor="middle" x="229.17" y="-134.7" font-family="Times New Roman,serif" font-size="14.00">first_order_lag(tau_s=0.5)</text>
</g>
<!-- signal:display.temp -->
<g id="node4" class="node">
<title>signal:display.temp</title>
<ellipse fill="none" stroke="black" cx="840.04" cy="-131.5" rx="58.52" ry="18"/>
<text xml:space="preserve" text-anchor="middle" x="840.04" y="-126.45" font-family="Times New Roman,serif" font-size="14.00">display.temp</text>
</g>
<!-- signal:heater.output -->
<g id="node5" class="node">
<title>signal:heater.output</title>
<ellipse fill="none" stroke="black" cx="64.15" cy="-77.5" rx="59.03" ry="18"/>
<text xml:space="preserve" text-anchor="middle" x="64.15" y="-72.45" font-family="Times New Roman,serif" font-size="14.00">heater.output</text>
</g>
<!-- signal:heater.output&#45;&gt;signal:chamber.power -->
<g id="edge2" class="edge">
<title>signal:heater.output&#45;&gt;signal:chamber.power</title>
<path fill="none" stroke="black" d="M123.38,-77.5C177.48,-77.5 258.46,-77.5 318.36,-77.5"/>
<polygon fill="black" stroke="black" points="318.15,-81 328.15,-77.5 318.15,-74 318.15,-81"/>
<text xml:space="preserve" text-anchor="middle" x="229.17" y="-80.7" font-family="Times New Roman,serif" font-size="14.00">saturation(max=1000, min=0)</text>
</g>
<!-- signal:sensor.reading&#45;&gt;signal:display.temp -->
<g id="edge3" class="edge">
<title>signal:sensor.reading&#45;&gt;signal:display.temp</title>
<path fill="none" stroke="black" d="M462.76,-131.5C544.31,-131.5 685.39,-131.5 769.69,-131.5"/>
<polygon fill="black" stroke="black" points="769.68,-135 779.68,-131.5 769.68,-128 769.68,-135"/>
<text xml:space="preserve" text-anchor="middle" x="624.03" y="-134.7" font-family="Times New Roman,serif" font-size="14.00">noise(amplitude=0.10000000000000001, seed=42)</text>
</g>
</g>
</svg>
